<svg width="162" height="40" viewBox="0 0 162 40" fill="none" xmlns="http://www.w3.org/2000/svg">
<path d="M12.9646 33.0187C8.6084 28.6253 4.27636 24.256 0 19.9428C4.56554 15.3476 9.18277 10.7003 13.7879 6.06519C15.1267 7.41507 16.4584 8.7577 17.7811 10.0914C14.5424 13.352 11.2731 16.6434 8.03064 19.9079C11.9777 23.8856 15.9268 27.8654 19.8574 31.8265C23.8354 27.8206 27.792 23.8362 31.7194 19.8812C30.5636 18.7179 29.3029 17.4491 28.028 16.166C25.3696 18.8497 22.6693 21.5758 19.999 24.2717C18.5892 22.8519 17.2584 21.5116 15.9812 20.2254C19.963 16.2138 24.018 12.1283 28.0892 8.02657C32.0408 12.0064 35.9906 15.9843 39.8628 19.8842C33.2559 26.541 26.6046 33.2423 19.8975 40C17.5804 37.6667 15.2845 35.3547 12.9646 33.0187Z" fill="white"/>
<path d="M144.139 23.4152C143.964 24.2387 143.798 25.0215 143.621 25.848C148.547 25.848 153.427 25.848 158.333 25.848C158.016 27.3274 157.707 28.7667 157.394 30.228C151.014 30.228 144.661 30.228 138.27 30.228C139.621 23.8795 140.968 17.5474 142.319 11.2013C148.694 11.2013 155.051 11.2013 161.445 11.2013C161.131 12.6673 160.824 14.1054 160.51 15.5708C155.607 15.5708 150.727 15.5708 145.805 15.5708C145.597 16.5456 145.394 17.4971 145.181 18.4999C150.095 18.4999 154.969 18.4999 159.89 18.4999C159.585 19.9426 159.297 21.3345 158.98 22.7196C158.959 22.8115 158.714 22.9061 158.572 22.9078C157.334 22.9225 156.097 22.9163 154.86 22.9163C151.469 22.9163 148.078 22.9225 144.687 22.9074C144.32 22.9057 144.144 23.0063 144.139 23.4152Z" fill="white"/>
<path d="M92.5599 15.5729C89.5226 15.5729 86.5335 15.5765 83.5445 15.5673C83.2511 15.5664 83.0846 15.606 83.0144 15.9437C82.3551 19.1147 81.6774 22.2818 81.0064 25.4503C80.9833 25.5594 80.9747 25.6716 80.9546 25.8161C84.367 25.8161 87.7623 25.8161 91.2277 25.8161C91.4231 24.889 91.6251 23.9309 91.837 22.9256C89.3815 22.9256 86.9922 22.9256 84.5245 22.9256C84.839 21.4439 85.1432 20.0107 85.4541 18.5462C89.3471 18.5462 93.2445 18.5462 97.1912 18.5462C96.3606 22.4442 95.5311 26.3375 94.6997 30.2392C88.3155 30.2392 81.9725 30.2392 75.5742 30.2392C76.9286 23.8763 78.2783 17.5354 79.6274 11.1974C86.0177 11.1974 92.3616 11.1974 98.7518 11.1974C98.4398 12.6593 98.1333 14.0949 97.8178 15.5729C96.0735 15.5729 94.3408 15.5729 92.5599 15.5729Z" fill="white"/>
<path d="M129.495 11.1799C133.189 11.1799 136.836 11.1799 140.551 11.1799C139.196 17.5497 137.849 23.8768 136.497 30.2288C135.034 30.2288 133.58 30.2288 132.084 30.2288C133.12 25.348 134.152 20.4923 135.197 15.5734C134.26 15.5734 133.365 15.5624 132.472 15.5891C132.373 15.592 132.223 15.7982 132.194 15.9314C131.64 18.4692 131.1 21.01 130.559 23.5506C130.108 25.6677 129.662 27.786 129.2 29.9007C129.171 30.0333 129.018 30.2396 128.919 30.2412C127.542 30.2636 126.164 30.2564 124.722 30.2564C125.765 25.3464 126.795 20.492 127.834 15.601C126.843 15.601 125.9 15.601 124.897 15.601C123.86 20.47 122.821 25.3553 121.78 30.2435C120.316 30.2435 118.889 30.2435 117.369 30.2435C118.724 23.8774 120.071 17.5424 121.425 11.1799C124.115 11.1799 126.781 11.1799 129.495 11.1799Z" fill="white"/>
<path d="M70.8569 23.2969C71.6946 19.3714 72.5322 15.4838 73.3515 11.5923C73.4165 11.2835 73.5053 11.167 73.8357 11.1718C75.1515 11.1912 76.4678 11.1798 77.8582 11.1798C76.5032 17.5478 75.157 23.8738 73.7987 30.2567C73.6367 30.2567 73.4811 30.2567 73.3255 30.2567C72.0557 30.2567 70.7855 30.2377 69.5165 30.2683C69.1341 30.2775 68.9548 30.1381 68.7741 29.8257C66.551 25.981 64.3136 22.1446 62.0792 18.3065C61.9839 18.1427 61.8817 17.9829 61.7331 17.7401C60.8421 21.9521 59.9688 26.0804 59.0909 30.2303C57.6219 30.2303 56.171 30.2303 54.6777 30.2303C56.0319 23.8685 57.3792 17.5388 58.7327 11.18C60.2778 11.18 61.8026 11.1712 63.3269 11.1957C63.4588 11.1978 63.6265 11.3973 63.7116 11.5435C65.9705 15.4229 68.2206 19.3073 70.4727 23.1906C70.5521 23.3274 70.6366 23.4612 70.7414 23.6338C70.7883 23.5069 70.8202 23.4203 70.8569 23.2969Z" fill="white"/>
<path d="M48.872 28.4456C49.6989 24.5527 50.5207 20.7004 51.347 16.8267C52.809 16.8267 54.2465 16.8267 55.7582 16.8267C54.8075 21.2963 53.8597 25.752 52.9071 30.2303C51.4389 30.2303 49.9851 30.2303 48.4941 30.2303C48.6205 29.6393 48.7437 29.0627 48.872 28.4456Z" fill="white"/>
<path d="M20.6609 7.28147C20.4124 7.55618 20.1881 7.8068 19.9774 8.04224C18.5865 6.64512 17.2535 5.3061 15.9453 3.99203C17.2529 2.67759 18.5964 1.32709 19.9166 0C21.2231 1.31702 22.5526 2.6572 23.899 4.01441C22.8699 5.05278 21.7774 6.15509 20.6609 7.28147Z" fill="#E00202"/>
<path d="M54.0796 15.5478C53.2477 15.5478 52.464 15.5478 51.6191 15.5478C51.9348 14.0633 52.2392 12.6312 52.5443 11.1965C54.0253 11.1965 55.4665 11.1965 56.9551 11.1965C56.6451 12.6542 56.3406 14.0863 56.0298 15.5478C55.3753 15.5478 54.7516 15.5478 54.0796 15.5478Z" fill="#E00101"/>
<path fill-rule="evenodd" clip-rule="evenodd" d="M112.727 22.9533C112.642 23.3693 112.566 23.7455 112.476 24.1604C112.04 26.2033 111.616 28.2076 111.189 30.2284H115.6L119.65 11.2054H100.523L96.4688 30.2562C96.7478 30.2562 97.0243 30.2564 97.2989 30.2567C98.4469 30.2576 99.5602 30.2585 100.673 30.2428C100.767 30.2415 100.912 30.061 100.94 29.9418C101.076 29.3704 101.197 28.7953 101.318 28.2203C101.355 28.0422 101.393 27.8642 101.43 27.6863C101.666 26.579 101.901 25.4718 102.136 24.3664C102.236 23.8949 102.336 23.4239 102.436 22.9533H112.727ZM104.583 15.5883C104.618 15.5872 104.651 15.5822 104.682 15.5708H104.727C104.728 15.5708 104.728 15.5708 104.728 15.5707H114.295L114.295 15.5708H114.295L113.688 18.4981H103.39C103.39 18.498 103.39 18.498 103.39 18.498H103.39C103.446 18.2318 103.501 17.9677 103.556 17.7049C103.687 17.081 103.817 16.4649 103.942 15.8478C103.953 15.7945 103.967 15.7505 103.984 15.7142C104.041 15.5907 104.131 15.5574 104.232 15.5559C104.289 15.5545 104.351 15.563 104.414 15.5716C104.47 15.5793 104.527 15.5872 104.583 15.5883Z" fill="white"/>
</svg>
