<?xml version="1.0" standalone="no"?>
<!DOCTYPE svg PUBLIC "-//W3C//DTD SVG 20010904//EN"
 "http://www.w3.org/TR/2001/REC-SVG-20010904/DTD/svg10.dtd">
<svg version="1.0" xmlns="http://www.w3.org/2000/svg"
 width="160.000000pt" height="160.000000pt" viewBox="0 0 160.000000 160.000000"
 preserveAspectRatio="xMidYMid meet">
<metadata>
Created by potrace 1.14, written by Peter Selinger 2001-2017
</metadata>
<g transform="translate(0.000000,160.000000) scale(0.100000,-0.100000)"
fill="#000000" stroke="none">
<path d="M716 1521 l-79 -79 81 -82 80 -82 73 77 c41 42 75 80 77 84 1 3 -33
41 -76 84 l-77 77 -79 -79z"/>
<path d="M276 1081 l-277 -278 398 -402 398 -402 398 400 c218 220 397 403
397 405 0 3 -105 111 -233 240 l-234 235 -242 -244 -243 -243 81 -82 81 -81
161 162 160 162 75 -74 74 -74 -237 -237 c-130 -130 -240 -235 -244 -232 -17
10 -454 456 -458 466 -2 6 83 97 188 202 l191 192 -78 81 -79 81 -277 -277z"/>
</g>
</svg>
