<svg width="270" height="357" viewBox="0 0 270 357" fill="none" xmlns="http://www.w3.org/2000/svg">
<path d="M34.6882 1.75135H235.563C240.497 10.1498 244.79 16.2992 249.897 21.4576C255 26.6126 260.886 30.7474 268.972 35.1597V325.796C262.175 329.923 257.067 333.637 252.468 338.211C247.861 342.793 243.79 348.212 239.042 355.72H31.2487C27.1308 348.199 23.4221 342.745 18.893 338.207C14.3668 333.671 9.05564 330.085 1.77607 326.254V34.6395C9.74251 29.6894 15.6063 25.3935 20.6672 20.358C25.7266 15.324 29.9573 9.57718 34.6882 1.75135Z" stroke="url(#paint0_linear_48_791)" stroke-opacity="0.2" stroke-width="1.5873"/>
<defs>
<linearGradient id="paint0_linear_48_791" x1="235.772" y1="0.957702" x2="135.472" y2="356.541" gradientUnits="userSpaceOnUse">
<stop stop-color="white"/>
<stop offset="0.239583" stop-color="#FCFCFC"/>
<stop offset="0.260417" stop-color="#D4D7E4"/>
<stop offset="1" stop-color="white"/>
</linearGradient>
</defs>
</svg>
