<svg width="178" height="67" viewBox="0 0 178 67" fill="none" xmlns="http://www.w3.org/2000/svg">
<path d="M34.5604 1.53789C33.3236 11.3135 36.559 19.5254 42.6619 26.816C43.3116 27.5922 43.186 30.5034 42.4437 31.2882C40.0849 33.7817 37.5616 36.089 34.7241 38.0418C34.0536 38.5033 33.5047 38.5409 32.767 38.1095C31.3927 37.3059 29.968 37.2958 28.6355 38.2927C28.2909 38.5506 27.9318 38.6673 27.4934 38.6108C22.2279 37.9328 17.7893 35.5731 13.9528 31.9865C13.7665 31.8123 13.6118 31.6014 13.8075 31.0183C22.2842 35.1105 30.854 34.6768 39.4078 31.2303C37.3515 31.7758 35.3033 32.3544 33.236 32.8544C31.9991 33.1536 30.872 33.3862 29.9362 31.9096C29.3217 30.94 28.0336 30.3469 26.6964 30.7072C26.0179 30.89 25.4919 30.6738 24.9628 30.3499C20.4063 27.5601 17.5801 23.392 15.5798 18.5712C15.5491 18.4973 15.6189 18.3818 15.6716 18.1606C16.4966 18.1266 16.8497 18.8035 17.2803 19.2979C21.862 24.5582 27.8553 27.1726 34.5365 28.4955C34.9783 28.5829 35.4445 28.5475 35.9331 28.3912C34.5823 28.0821 33.2292 27.7827 31.8815 27.4608C30.8762 27.2206 30.1883 26.8022 30.042 25.5637C29.8844 24.2293 28.9848 23.2411 27.622 22.9031C26.9566 22.738 26.544 22.3809 26.1959 21.8536C23.4453 17.6874 22.549 13.0505 22.7123 8.14756C22.7255 7.75031 22.7408 7.31534 23.4396 7.06205C25.4896 14.9156 30.1963 20.7864 37.1926 24.8415C35.8974 23.8351 34.6084 22.8205 33.3043 21.8256C32.6302 21.3113 32.2438 20.7661 32.6779 19.8725C33.3499 18.4892 32.7347 17.2556 31.8623 16.2905C31.2777 15.6439 30.8216 15.021 30.7432 14.2003C30.2761 9.31118 31.5195 4.79128 33.8018 0.510391C33.893 0.339357 34.0718 0.207311 34.2303 0.0831971C34.2989 0.0295182 34.4196 0.0422675 34.5436 0.019989C35.0452 0.46575 34.6484 0.94505 34.5604 1.53789ZM38.211 28.872C39.2305 28.9711 40.2435 29.3213 41.5164 28.9676C40.0534 28.6914 38.8198 28.6676 37.14 28.7083C37.7244 28.806 37.8717 28.8307 38.211 28.872Z" fill="white"/>
<path d="M141.307 28.6103C149.697 28.0071 156.643 24.4735 162.07 18.1159C162.675 18.616 162.437 18.9623 162.303 19.264C160.324 23.747 157.575 27.6084 153.346 30.2684C152.773 30.6286 152.239 30.8892 151.491 30.7282C150.063 30.4208 148.828 31.0214 148.051 32.1411C147.441 33.0202 146.838 33.1868 145.878 33.0221C143.158 32.5557 140.537 31.7388 137.921 30.8992C142.068 33.0127 146.558 33.8352 151.128 33.972C155.73 34.1098 160.177 33.045 164.381 30.9775C164.652 31.9831 164.021 32.2417 163.638 32.5654C160.022 35.6213 156.005 37.8602 151.229 38.5109C150.726 38.5794 150.22 38.7449 149.746 38.4082C148.22 37.3254 146.682 37.255 145.118 38.3358C144.558 38.7231 144.053 38.4896 143.564 38.1506C140.652 36.1313 138.012 33.7977 135.614 31.1963C134.849 30.367 134.992 27.4146 135.786 26.4317C138.897 22.58 141.377 18.3872 142.791 13.6094C144.045 9.37129 144.111 5.07644 143.456 0.7412C143.42 0.504266 143.451 0.257233 143.451 0.0101667C144.243 -0.0841237 144.419 0.493838 144.614 0.908648C146.338 4.58909 147.657 8.37579 147.522 12.5257C147.474 14.016 147.332 15.3613 146.125 16.5563C145.415 17.2594 144.9 18.5232 145.42 19.6551C145.97 20.8536 145.338 21.4682 144.539 22.1001C142.385 23.803 140.153 25.3946 137.819 26.8057C146.101 22.5581 152.265 16.4355 154.728 7.19508C155.486 7.42241 155.47 7.86753 155.475 8.2596C155.539 13.0464 154.725 17.611 152.043 21.7019C151.638 22.3195 151.145 22.6924 150.412 22.9661C149.13 23.4454 148.127 24.3718 148.019 25.8526C147.948 26.8141 147.421 27.1929 146.604 27.3768C144.909 27.7583 143.214 28.1346 141.276 28.5632C139.726 28.724 138.388 28.5892 136.688 29.092C138.546 29.1622 139.943 29.0288 141.307 28.6103Z" fill="white"/>
<path d="M39.8775 54.9376C39.9764 53.1096 40.0688 51.4278 40.1703 49.7465C40.2308 48.7465 40.2503 47.7777 39.1094 47.2895C38.812 47.1623 38.5987 46.9163 38.6827 46.5634C38.7655 46.2155 39.0686 46.0907 39.3848 46.0832C40.3554 46.0602 41.3269 46.0514 42.2977 46.0649C42.6704 46.0701 43.0714 46.2211 43.1682 46.589C43.7766 48.9018 45.7043 50.2414 47.1402 51.9187C49.7917 55.0161 52.5955 57.9823 55.8138 61.1373C55.8138 59.8046 55.8831 58.8109 55.8009 57.8297C55.5497 54.8308 55.7463 51.8081 55.3029 48.8207C55.2192 48.2569 55.1068 47.7651 54.542 47.4112C53.6669 46.8628 54.1038 46.2647 54.7889 46.1514C55.9049 45.9669 57.0938 45.757 58.1264 46.3529C56.9456 52.4771 57.4753 58.6246 56.8918 64.6406C55.7992 65.0143 55.4648 64.207 55.0195 63.7342C51.0958 59.5682 47.2014 55.3747 43.286 51.2008C42.8839 50.7721 42.572 50.2092 41.8253 50.0247C41.8253 54.2959 41.8521 58.5138 41.8049 62.7308C41.7943 63.6839 42.995 63.8557 42.9231 65.0423C41.6341 65.0423 40.3347 65.1304 39.0554 65.0081C38.328 64.9386 38.3377 64.303 38.8225 63.8908C39.5548 63.268 39.502 62.4827 39.534 61.6582C39.6189 59.4658 39.7576 57.2754 39.8775 54.9376Z" fill="white"/>
<path d="M132.89 56.7065C133.293 59.8014 132.826 62.6186 131.537 65.531C130.275 64.3428 131.335 63.0799 130.855 61.9248C129.68 62.6654 128.618 63.4363 127.425 63.9909C121.668 66.6675 115.102 63.2948 114.039 57.0936C113.34 53.0099 116.494 47.254 120.086 46.5596C123.275 45.943 126.571 45.4043 129.664 47.1486C129.974 47.3235 130.288 47.496 130.578 47.7003C130.693 47.7807 130.748 47.945 130.876 48.1429C130.099 49.154 129.348 49.5244 128.084 48.6915C125.522 47.0033 121.208 47.2728 118.971 49.1016C116.83 50.8514 115.813 55.0774 116.829 58.0047C117.767 60.7092 120.88 62.8115 124 62.8948C125.447 62.9335 126.849 62.8385 128.195 62.2283C130.523 61.1726 131.538 59.2844 131.099 56.7868C130.956 55.976 130.522 55.5173 129.709 55.386C129.246 55.3113 128.702 55.1903 128.815 54.5817C128.92 54.012 129.49 54.0609 129.946 54.0449C130.303 54.0323 130.661 54.0398 131.019 54.0397C133.944 54.039 133.944 54.0391 132.89 56.7065Z" fill="white"/>
<path d="M4.22823 60.0915C4.44626 57.0717 3.29625 54.4525 2.5848 51.7526C2.13856 50.0591 1.91213 48.327 1.87695 46.6093C1.83221 44.4246 1.52584 42.3544 0.547404 40.3945C0.437463 40.1743 0.325807 39.9218 0.818919 39.4217C2.63736 41.6547 4.95572 43.1679 8.12777 43.1857C7.38505 44.2197 7.38505 44.2197 6.11278 44.8411C6.06734 45.2246 6.90973 45.3209 6.53662 45.7461C4.55071 48.0092 5.59837 50.6851 5.70615 53.1195C5.8554 56.4908 5.93527 59.8353 5.46598 63.4003C9.29992 63.3468 12.9915 63.518 16.5729 61.8534C15.8146 63.752 15.0514 65.352 13.5599 66.7988C13.159 65.1254 12.055 65.1602 10.8968 65.1672C9.7765 65.174 8.65592 65.0277 7.53438 64.9693C6.11345 64.8954 4.67542 64.6643 3.36011 65.5011C2.86915 65.8134 2.2843 65.8215 1.71945 65.7665C0.962758 65.693 0.252704 65.378 0.0412583 64.6383C-0.202853 63.7844 0.695424 63.7439 1.1835 63.4759C2.56024 62.72 3.9701 62.0174 4.22823 60.0915Z" fill="white"/>
<path d="M99.5379 48.2406C102.469 53.3982 105.354 58.4492 108.248 63.4957C108.447 63.8426 108.793 64.1266 108.532 64.7746C107.156 65.038 105.713 65.0699 103.954 64.6808C105.306 63.3987 104.565 62.3558 104.051 61.3399C103.245 59.7463 102.446 58.1409 101.512 56.6214C100.097 54.3181 97.773 55.8324 95.8968 55.4347C94.8287 55.2083 94.1963 55.8178 93.7629 56.7569C92.8867 58.6552 91.9581 60.5294 91.0611 62.4182C90.9311 62.6919 90.6988 63.0488 90.7798 63.2703C91.5542 65.3886 90.0494 64.9662 88.9446 64.9164C88.2597 64.8855 87.5091 65.132 86.8703 64.5737C86.8788 64.4261 86.8276 64.2192 86.9039 64.1474C90.3383 60.9152 92.0851 56.6167 94.2635 52.5887C95.2342 50.7938 96.2593 49.0276 97.2884 47.2652C97.585 46.7572 97.8606 46.1493 98.7369 46.2152C98.9827 46.8373 99.2387 47.4852 99.5379 48.2406ZM96.3838 51.7056C96.0568 52.3717 95.5193 52.9518 95.4517 53.8912C96.9154 54.0502 98.2823 54.1364 99.8494 53.7968C99.1963 52.4143 98.5596 51.2952 97.7126 50.3043C97.0329 50.5294 96.891 51.1438 96.3838 51.7056Z" fill="white"/>
<path d="M142.77 61.1016C142.769 59.5337 142.769 58.1143 142.769 56.843C141.924 56.089 141.145 57.2314 140.455 56.569C140.401 55.8907 140.969 55.6836 141.399 55.5442C142.62 55.1478 142.852 54.3055 142.777 53.1606C142.641 51.1024 142.837 48.9945 141.623 47.21C142.062 46.5306 142.668 46.689 143.211 46.684C144.898 46.6684 146.587 46.6402 148.274 46.6824C149.351 46.7093 149.977 46.2885 150.319 45.2499C150.696 44.1074 151.162 42.9709 152.634 42.4597C152.451 44.1052 152.312 45.5817 152.814 47.0866C153.096 47.9306 152.284 48.3214 151.465 48.298C149.881 48.2527 148.293 48.2338 146.718 48.0842C145.538 47.9721 144.981 48.3053 145.046 49.5606C145.106 50.7322 145.046 51.9095 145.054 53.0842C145.066 54.876 145.662 55.4203 147.493 55.2118C148.389 55.1097 149.27 54.8741 150.256 54.8924C149.544 56.2177 148.284 56.8472 146.913 56.8424C145.427 56.8373 144.956 57.3889 144.928 58.7688C144.895 60.3853 144.71 61.9987 144.585 63.7092C147.601 64.1119 150.324 63.5991 153.005 62.7156C153.47 62.5624 153.969 62.1083 154.387 62.6719C154.851 63.2985 154.274 63.6952 153.903 64.0955C153.145 64.9124 152.375 65.7174 151.485 66.6596C150.817 65.1868 149.637 65.2017 148.396 65.272C146.713 65.3672 145.026 65.3988 143.34 65.4416C142.847 65.4542 142.295 65.5865 141.889 64.8508C143 63.915 142.749 62.554 142.77 61.1016Z" fill="white"/>
<path d="M172.548 58.674C172.548 52.8056 172.548 47.0906 172.549 41.3756C172.549 38.9279 174.425 37.3161 177.393 37.5775C174.51 39.4802 175.564 42.2117 175.52 44.631C175.412 50.5992 175.511 56.5709 175.465 62.5407C175.454 63.9886 175.558 65.2874 176.919 66.1485C177.116 66.2734 177.286 66.5046 177.127 66.8754C175.78 66.8442 174.611 66.2598 173.504 65.5399C172.814 65.0908 172.53 64.4106 172.543 63.5727C172.57 61.9913 172.549 60.4091 172.548 58.674Z" fill="white"/>
<path d="M72.2242 64.8598C70.9248 64.7867 69.7546 65.0808 68.3983 64.6899C69.9585 62.4777 69.1699 60.0532 69.3534 57.7313C69.4482 56.5317 69.3048 55.6 67.7118 56.2959C67.4356 56.4166 67.1097 56.4062 66.8753 56.0948C66.8589 55.4315 67.4419 55.2031 67.8535 55.0892C69.2562 54.7009 69.4286 53.7459 69.3615 52.5047C69.2557 50.5468 69.6821 48.5021 68.1958 46.9354C68.4688 46.2462 68.9654 46.3135 69.414 46.3089C72.0719 46.2818 74.7299 46.2621 77.388 46.2459C77.6422 46.2443 77.902 46.2584 78.1501 46.3093C78.6388 46.4096 79.0545 46.6685 79.0149 47.2127C78.9698 47.8324 78.4493 47.8367 77.9728 47.8245C76.2881 47.7812 74.6029 47.7518 72.9191 47.6864C72.0251 47.6517 71.5976 47.9819 71.6323 48.9285C71.6827 50.3053 71.7076 51.6868 71.6506 53.0625C71.6035 54.2014 72.159 54.5863 73.1946 54.6781C74.4508 54.7893 75.6528 54.3863 76.9293 54.3899C75.7012 56.1701 73.8911 56.5086 71.8486 56.5079C71.1705 58.7037 71.4406 60.9987 71.0836 63.42C73.8089 63.6729 76.2744 63.1918 78.7356 62.5484C79.4666 62.3572 80.3935 61.4678 80.9421 62.3215C81.4866 63.1685 80.2841 63.6464 79.823 64.2527C79.3401 64.8876 78.8737 65.58 78.0939 65.9426C76.4515 64.0946 74.2987 65.0907 72.2242 64.8598Z" fill="white"/>
<path d="M166.433 51.6194C166.433 49.5248 166.396 47.5826 166.445 45.6425C166.489 43.8886 166.584 42.1512 164.426 41.0722C167.282 40.5989 169.568 42.3307 169.581 44.6509C169.614 50.781 169.576 56.9115 169.615 63.0415C169.623 64.3908 169.042 65.3176 167.914 65.8819C166.932 66.373 165.933 66.9067 164.711 66.9557C164.724 66.7379 164.68 66.5254 164.748 66.4809C166.51 65.3178 166.479 63.5611 166.446 61.7342C166.385 58.4147 166.431 55.0934 166.433 51.6194Z" fill="white"/>
<path d="M88.0356 12.8427C88.5737 11.8706 88.1049 10.6689 89.1743 9.74261C90.1626 11.3465 89.9247 13.1452 90.599 14.7024C91.7455 14.3039 91.5432 12.726 92.6949 12.218C93.3748 13.2368 92.6399 14.0796 92.4613 15.0931C94.0442 14.4017 95.0521 13.0084 96.5852 12.2772C96.4853 13.9112 95.7339 15.2699 94.4011 15.944C91.934 17.1917 89.4904 18.7859 86.4375 17.2544C84.2017 16.1329 81.9762 15.1778 81.6836 12.2552C83.1539 12.9597 84.117 14.3501 85.7571 15.0791C85.4108 14.1261 85.115 13.2524 85.2727 12.253C86.7725 12.3471 86.3063 14.2388 87.5304 14.4979C88.0016 14.0918 87.7263 13.4362 88.0356 12.8427Z" fill="white"/>
<path d="M26.2324 53.7667C26.2232 56.3657 26.1992 58.8113 26.2128 61.2568C26.2179 62.1792 26.015 63.0852 27.0228 63.8403C27.6947 64.3437 26.9919 64.837 26.3796 64.8586C25.3188 64.8961 24.2717 64.7135 23.0622 64.3501C24.7057 62.8703 24.1651 61.0257 24.1541 59.3224C24.1338 56.1668 24.0025 53.0105 23.8509 49.8577C23.7955 48.7074 23.6745 47.5406 23.0312 46.5396C24.3554 45.8314 26.2099 45.8469 27.3197 46.5426C25.3076 48.6421 26.5882 51.245 26.2324 53.7667Z" fill="white"/>
<path d="M125.028 27.3537C124.061 27.339 123.627 26.6281 123.027 26.1781C122.539 25.8119 122.015 25.5734 121.505 26.0391C120.892 26.5984 121.032 27.374 121.2 28.0511C121.364 28.7131 122.011 28.5473 122.497 28.5125C122.789 28.4917 123.081 28.3516 123.354 28.223C123.76 28.0314 124.2 27.6335 124.553 28.1894C124.865 28.6812 124.833 29.3056 124.581 29.8099C124.294 30.3838 123.811 30.1108 123.394 29.8949C122.73 29.5507 121.928 29.2844 121.39 29.8317C120.785 30.4492 120.961 31.4287 121.206 32.1653C121.57 33.2561 122.383 32.8697 123.059 32.413C123.787 31.9211 124.321 31.0816 125.354 31.0774C125.567 33.1524 125.052 33.7979 123.18 33.8496C121.61 33.8929 120.036 33.9477 118.391 33.6994C119.13 30.8019 118.984 28.0017 118.527 25.0486C120.455 24.7776 122.4 24.713 124.282 24.9623C125.441 25.1156 125.25 26.3696 125.028 27.3537Z" fill="white"/>
<path d="M55.7192 32.0627C56.35 33.2953 57.0735 32.787 57.7734 32.314C58.4656 31.8461 58.958 31.0105 59.9673 31.1221C60.2551 32.9079 59.6187 33.7883 57.9944 33.8496C56.3338 33.9123 54.6735 33.9322 52.9629 33.7184C53.7407 30.7806 53.515 28.0275 53.1284 25.014C55.0497 24.8087 57.0283 24.6725 58.9428 25.0085C59.965 25.1879 59.801 26.4002 59.9325 27.2743C58.829 27.5375 58.3783 26.8235 57.8142 26.3527C57.2895 25.9148 56.767 25.4394 56.0861 26.0692C55.4648 26.644 55.5573 27.4171 55.7928 28.0673C56.0689 28.8292 56.8231 28.5346 57.4022 28.4714C57.9473 28.412 58.3224 27.7955 59.0607 27.9736C59.5126 28.6111 59.4102 29.3124 59.1304 30.0679C58.012 30.1956 56.9369 28.955 55.9197 29.8797C55.3787 30.3716 55.7149 31.2398 55.7192 32.0627Z" fill="white"/>
<path d="M91.8837 25.4436C91.9444 26.1499 92.5085 26.6782 92.1045 27.349C91.1474 27.5512 90.6416 26.8269 90.043 26.3147C89.5512 25.8937 89.0734 25.5255 88.4279 26.0409C87.7437 26.5873 87.8386 27.3535 88.0276 28.0143C88.2575 28.818 89.0263 28.5279 89.6044 28.4967C90.2112 28.464 90.6043 27.7591 91.36 27.9092C91.7987 28.5829 91.6365 29.3212 91.5976 30.029C90.9004 30.4473 90.4997 29.8272 89.9872 29.7288C89.307 29.5983 88.4203 29.2313 88.0828 30.0564C87.7725 30.815 87.6236 31.8338 88.3006 32.5189C89.0276 33.2547 89.6889 32.6386 90.3009 32.1487C90.9154 31.6567 91.4149 30.9066 92.3847 31.1225C92.4601 33.2183 91.9471 33.8267 90.0127 33.8645C88.4511 33.8951 86.8885 33.8707 85.1035 33.8707C86.3774 30.848 86.0164 28.0639 85.4916 24.9814C87.6452 25.0401 89.7517 24.4039 91.8837 25.4436Z" fill="white"/>
<path d="M101.971 32.3346C100.78 30.9274 99.6606 29.6041 98.5346 28.2863C98.479 28.2213 98.3665 28.2048 98.1534 28.1078C98.1534 29.9526 97.6639 31.7674 98.9332 33.4401C97.9308 33.9913 97.1036 33.9833 96.0195 33.4864C96.9549 32.1682 97.0894 30.7387 97.0232 29.2523C96.9609 27.8563 97.2437 26.4184 96.1334 25.0949C99.8499 24.2527 100.159 28.0214 102.275 29.1119C102.674 27.8489 102.674 27.8489 101.745 25.2279C102.587 24.7287 103.422 24.8207 104.454 25.2194C102.805 27.7955 103.985 30.6849 103.433 33.333C102.517 33.4923 102.429 32.7561 101.971 32.3346Z" fill="white"/>
<path d="M80.6791 29.3985C81.6066 30.5237 81.663 31.5965 80.8868 32.7064C80.0752 33.867 78.9165 34.1321 77.6394 33.8322C76.7635 33.6265 75.9293 33.2485 74.9476 33.5417C74.7692 32.5247 74.623 31.6917 74.4707 30.8235C75.5081 30.3021 75.9086 31.1413 76.4086 31.6167C76.9984 32.1775 77.4733 32.8841 78.4017 32.8968C78.9244 32.9039 79.4681 32.8625 79.697 32.2974C79.9233 31.7388 79.6377 31.2388 79.1933 30.974C78.2774 30.4282 77.2765 30.0252 76.3562 29.4858C75.375 28.9106 74.7221 28.0528 74.8511 26.856C74.9676 25.7753 75.728 25.1593 76.7013 24.8203C78.9953 24.0213 81.0282 25.4882 80.6818 27.6908C80.0291 27.8417 79.6501 27.389 79.2447 27.0192C78.9062 26.7105 78.6101 26.3547 78.2661 26.053C77.7464 25.5973 77.1293 25.4161 76.657 26.0276C76.0904 26.761 76.75 27.1452 77.2791 27.4364C78.3929 28.0494 79.6226 28.456 80.6791 29.3985Z" fill="white"/>
<path d="M70.5865 30.0131C71.1473 32.9027 69.4925 34.4591 66.7725 33.7516C66.3776 33.6489 65.9897 33.4982 65.5886 33.445C64.5634 33.3091 63.6169 31.9618 63.9421 31.0099C64.1593 30.3739 64.64 30.4552 65.0371 30.7808C65.5482 31.1998 66.0015 31.6923 66.4586 32.1732C66.9055 32.6434 67.4188 32.9282 68.084 32.885C68.6403 32.8489 69.1055 32.6328 69.2531 32.0681C69.3903 31.5429 69.0369 31.1751 68.6305 30.9424C67.8333 30.486 66.9926 30.1059 66.1889 29.6599C64.5781 28.766 63.989 27.4759 64.5559 26.1505C65.0233 25.0578 66.5951 24.671 68.1436 24.8691C69.9414 25.099 70.3343 26.1187 70.331 27.6499C69.4599 27.8662 69.0528 27.2693 68.569 26.859C68.2193 26.5624 67.9226 26.1996 67.5574 25.9263C67.0269 25.5294 66.4729 25.5612 66.0875 26.1253C65.6688 26.7383 66.1755 27.0927 66.6069 27.3415C67.358 27.7745 68.1582 28.122 68.9338 28.5132C69.5854 28.8417 70.1207 29.3076 70.5865 30.0131Z" fill="white"/>
<path d="M108.171 26.5655C109.887 24.7195 111.804 24.2236 113.746 25.2289C114.661 25.7029 114.422 26.8026 114.716 27.7688C113.541 27.8378 112.979 27.1018 112.345 26.494C111.172 25.3686 110.119 25.578 109.624 27.1186C109.158 28.5671 109.391 30.0184 110.383 31.1582C111.678 32.6464 113.126 31.9298 114.497 31.0313C114.599 33.1632 111.937 34.5565 109.786 33.6266C107.319 32.5594 106.57 29.4637 108.171 26.5655Z" fill="white"/>
</svg>
